<?xml version="1.0" encoding="utf-8"?>
<!-- Generator: Adobe Illustrator 24.2.1, SVG Export Plug-In . SVG Version: 6.00 Build 0)  -->
<svg version="1.1" id="Layer_1" xmlns="http://www.w3.org/2000/svg" xmlns:xlink="http://www.w3.org/1999/xlink" x="0px" y="0px"
	 viewBox="0 0 1000 1000" style="enable-background:new 0 0 1000 1000;" xml:space="preserve">
<style type="text/css">
	.st0{fill:#29484F;}
	.st1{fill:#1DAEAC;}
</style>
<g>
	<g>
		<g>
			<path class="st0" d="M205.929,620.67c0,0.082-0.021,0.165-0.062,0.245c-0.042,0.082-0.061,0.205-0.061,0.367l-18.261,75.984
				c-0.735,2.941-1.798,5.312-3.187,7.108c-1.39,1.798-3.003,3.167-4.841,4.105c-1.838,0.94-3.799,1.572-5.882,1.899
				c-2.083,0.326-4.188,0.49-6.312,0.49c-2.125,0-4.25-0.164-6.373-0.49c-2.125-0.327-4.105-0.959-5.944-1.899
				c-1.838-0.938-3.453-2.308-4.841-4.105c-1.391-1.796-2.451-4.167-3.187-7.108l-18.261-75.984c0-0.162-0.021-0.264-0.062-0.306
				c-0.042-0.04-0.061-0.142-0.061-0.307c0-0.57,0.203-1.042,0.613-1.409c0.408-0.368,0.938-0.552,1.593-0.552h17.035
				c0.653,0,1.183,0.205,1.593,0.613c0.408,0.409,0.693,0.939,0.858,1.593l15.319,70.715c0.245,1.225,0.815,1.838,1.716,1.838
				c0.898,0,1.471-0.613,1.716-1.838l15.319-70.715c0.163-0.653,0.429-1.184,0.796-1.593c0.368-0.408,0.877-0.613,1.532-0.613
				h17.158C205.234,618.709,205.929,619.364,205.929,620.67z"/>
			<path class="st0" d="M250.477,709.032c-0.45,0.49-1.001,0.735-1.655,0.735H232.4c-0.655,0-1.185-0.245-1.593-0.735
				c-0.41-0.49-0.612-1.061-0.612-1.716v-86.279c0-1.551,0.735-2.328,2.206-2.328h16.422c1.551,0,2.329,0.777,2.329,2.328v86.279
				C251.151,707.972,250.925,708.542,250.477,709.032z"/>
			<path class="st0" d="M338.899,684.031c0,3.269-0.572,6.495-1.716,9.682c-1.145,3.187-3.045,6.047-5.698,8.579
				c-2.656,2.533-6.109,4.596-10.356,6.188c-4.249,1.594-9.479,2.39-15.687,2.39c-4.902,0-9.212-0.245-12.93-0.735
				c-3.719-0.489-7.129-1.143-10.233-1.96c-0.655-0.163-1.226-0.448-1.715-0.858c-0.49-0.408-0.735-0.938-0.735-1.593v-12.011
				c0-0.898,0.203-1.511,0.613-1.839c0.408-0.325,0.938-0.489,1.593-0.489h0.368c1.226,0.164,2.92,0.327,5.086,0.489
				c2.164,0.165,4.391,0.307,6.679,0.43c2.286,0.122,4.473,0.245,6.557,0.367c2.083,0.123,3.738,0.184,4.963,0.184
				c4.248,0,7.127-0.692,8.64-2.083c1.511-1.389,2.268-3.554,2.268-6.495c0-1.797-0.552-3.328-1.655-4.596
				c-1.103-1.267-3.248-2.838-6.434-4.719l-16.913-10.05c-2.861-1.716-5.208-3.472-7.047-5.27c-1.838-1.796-3.309-3.677-4.412-5.638
				s-1.88-3.983-2.329-6.066c-0.45-2.083-0.674-4.229-0.674-6.435c0-3.349,0.509-6.474,1.532-9.375
				c1.021-2.899,2.757-5.433,5.208-7.599c2.451-2.164,5.678-3.86,9.682-5.086c4.002-1.226,8.987-1.838,14.952-1.838
				c2.206,0,4.596,0.082,7.169,0.245c2.574,0.164,5.044,0.367,7.415,0.612c2.369,0.245,4.575,0.532,6.618,0.858
				c2.041,0.327,3.635,0.654,4.779,0.979c0.49,0.165,0.919,0.41,1.287,0.735c0.367,0.328,0.552,0.818,0.552,1.471v12.379
				c0,0.572-0.144,1.062-0.43,1.471c-0.287,0.409-0.838,0.612-1.654,0.612h-0.245c-0.899-0.08-2.35-0.184-4.351-0.307
				c-2.003-0.122-4.271-0.264-6.802-0.429c-2.533-0.163-5.128-0.307-7.782-0.429c-2.656-0.123-5.005-0.184-7.047-0.184
				c-3.514,0-5.986,0.532-7.415,1.593c-1.431,1.062-2.145,2.696-2.145,4.902c0,0.899,0.123,1.676,0.368,2.328
				c0.245,0.655,0.674,1.287,1.287,1.9c0.613,0.612,1.45,1.268,2.512,1.96c1.061,0.695,2.409,1.492,4.044,2.391l15.687,8.456
				c6.373,3.432,10.724,7.19,13.052,11.275C337.735,674.514,338.899,679.048,338.899,684.031z"/>
			<path class="st0" d="M432.408,692.916c-1.88,4.535-4.411,8.131-7.598,10.785c-3.187,2.656-6.925,4.516-11.214,5.576
				c-4.29,1.061-8.886,1.593-13.788,1.593s-9.498-0.532-13.787-1.593s-8.027-2.92-11.214-5.576
				c-3.187-2.654-5.699-6.25-7.537-10.785c-1.839-4.534-2.758-10.313-2.758-17.342v-54.537c0-0.652,0.245-1.204,0.735-1.654
				c0.49-0.448,1.062-0.674,1.716-0.674h16.055c0.653,0,1.226,0.226,1.716,0.674c0.49,0.45,0.735,1.002,0.735,1.654v54.537
				c0,3.106,0.225,5.781,0.674,8.027c0.448,2.249,1.226,4.087,2.329,5.516c1.103,1.431,2.573,2.493,4.412,3.187
				c1.838,0.695,4.146,1.041,6.924,1.041c2.777,0,5.086-0.346,6.925-1.041c1.838-0.693,3.309-1.756,4.412-3.187
				c1.103-1.429,1.899-3.267,2.39-5.516c0.49-2.246,0.735-4.921,0.735-8.027v-54.537c0-0.652,0.245-1.204,0.735-1.654
				c0.49-0.448,1.061-0.674,1.716-0.674h15.932c0.653,0,1.245,0.226,1.777,0.674c0.53,0.45,0.797,1.002,0.797,1.654v54.537
				C435.227,682.603,434.287,688.382,432.408,692.916z"/>
			<path class="st0" d="M532.905,707.807c0,1.308-0.695,1.961-2.084,1.961h-17.157c-0.655,0-1.186-0.203-1.594-0.612
				c-0.409-0.408-0.694-0.938-0.857-1.594l-4.412-20.099h-25.124l-4.412,20.099c-0.164,0.655-0.449,1.186-0.857,1.594
				c-0.41,0.409-0.94,0.612-1.594,0.612h-17.157c-1.391,0-2.084-0.653-2.084-1.961c0-0.08,0.02-0.163,0.062-0.245
				c0.04-0.08,0.062-0.203,0.062-0.367l18.261-75.984c0.735-2.941,1.796-5.311,3.187-7.108c1.388-1.796,3.003-3.165,4.841-4.105
				c1.838-0.938,3.818-1.572,5.944-1.899c2.123-0.326,4.247-0.49,6.372-0.49c2.124,0,4.229,0.164,6.312,0.49
				c2.084,0.327,4.045,0.961,5.883,1.899c1.839,0.94,3.451,2.31,4.841,4.105c1.389,1.798,2.451,4.167,3.187,7.108l18.261,75.984
				c0,0.164,0.02,0.287,0.062,0.367C532.884,707.644,532.905,707.727,532.905,707.807z M495.893,636.848
				c-0.165-0.653-0.327-1.123-0.49-1.41c-0.165-0.285-0.532-0.429-1.104-0.429c-0.899,0-1.471,0.613-1.716,1.839l-7.476,33.825
				h18.261L495.893,636.848z"/>
			<path class="st0" d="M603.497,709.278c-0.98,0.245-2.288,0.45-3.922,0.612c-1.636,0.163-3.37,0.326-5.209,0.49
				c-1.838,0.163-3.697,0.286-5.576,0.368c-1.88,0.08-3.636,0.122-5.27,0.122c-3.922,0-7.702-0.327-11.337-0.98
				c-3.636-0.652-6.822-1.918-9.559-3.799c-2.738-1.879-4.924-4.554-6.557-8.027c-1.636-3.472-2.451-7.985-2.451-13.542V621.16
				c0-0.653,0.245-1.226,0.735-1.716s1.061-0.735,1.716-0.735h16.055c0.652,0,1.226,0.245,1.716,0.735s0.735,1.062,0.735,1.716
				v63.361c0,3.187,0.592,5.373,1.776,6.557c1.184,1.186,3.206,1.776,6.066,1.776h21.08c0.653,0,1.226,0.245,1.716,0.735
				s0.735,1.063,0.735,1.716v11.398C605.948,708.094,605.131,708.952,603.497,709.278z"/>
			<path class="st0" d="M696.149,671.53c0,7.108-0.938,13.155-2.815,18.139c-1.876,4.984-4.444,9.05-7.707,12.193
				c-3.264,3.146-7.097,5.435-11.501,6.863s-9.137,2.145-14.191,2.145c-5.058,0-9.789-0.716-14.194-2.145
				c-4.404-1.429-8.237-3.717-11.501-6.863c-3.263-3.144-5.83-7.209-7.707-12.193c-1.877-4.983-2.813-11.03-2.813-18.139v-14.584
				c0-7.108,0.937-13.153,2.813-18.139c1.877-4.982,4.444-9.048,7.707-12.193c3.264-3.145,7.097-5.433,11.501-6.863
				c4.405-1.429,9.137-2.145,14.194-2.145c5.055,0,9.787,0.716,14.191,2.145c4.404,1.431,8.237,3.719,11.501,6.863
				c3.263,3.146,5.831,7.211,7.707,12.193c1.877,4.985,2.815,11.03,2.815,18.139V671.53z M675.192,656.914
				c0-7.467-1.247-12.842-3.738-16.124c-2.493-3.282-6.312-4.923-11.459-4.923s-8.946,1.641-11.397,4.923s-3.677,8.657-3.677,16.124
				v14.648c0,7.469,1.226,12.842,3.677,16.124s6.25,4.923,11.397,4.923s8.966-1.641,11.459-4.923
				c2.491-3.282,3.738-8.655,3.738-16.124V656.914z"/>
			<path class="st0" d="M794.07,708.297c0,0.98-0.612,1.471-1.838,1.471h-18.858c-0.658,0-1.15-0.245-1.48-0.735
				c-0.329-0.49-0.656-1.061-0.986-1.716l-16.346-31.007l-1.342,0.123c-1.303,0-2.786-0.04-4.452-0.123
				c-1.668-0.08-3.072-0.122-4.209-0.122v31.129c0,0.655-0.247,1.226-0.741,1.716s-1.068,0.735-1.726,0.735h-16.024
				c-0.658,0-1.232-0.245-1.727-0.735s-0.739-1.061-0.739-1.716v-82.234c0-2.124,0.45-3.555,1.35-4.29
				c0.9-0.735,2.292-1.266,4.175-1.593c1.391-0.245,3.069-0.448,5.034-0.612c1.965-0.163,4.052-0.326,6.262-0.49
				c2.21-0.163,4.481-0.286,6.813-0.368c2.332-0.08,4.605-0.122,6.815-0.122c5.237,0,10.106,0.471,14.608,1.409
				c4.502,0.94,8.411,2.533,11.728,4.779c3.314,2.248,5.913,5.209,7.796,8.886c1.882,3.677,2.824,8.211,2.824,13.604v1.593
				c0,6.538-1.522,11.808-4.563,15.81c-3.041,4.004-6.823,6.905-11.344,8.702l18.604,34.561
				C793.948,707.44,794.07,707.889,794.07,708.297z M770.05,646.284c0-3.757-1.383-6.515-4.147-8.272
				c-2.766-1.756-6.708-2.635-11.831-2.635c-0.405,0-1.078,0.021-2.013,0.061c-0.934,0.042-1.89,0.083-2.866,0.123
				c-0.977,0.042-1.911,0.082-2.806,0.122c-0.894,0.042-1.503,0.062-1.828,0.062v23.53c0.325,0,0.894,0.021,1.708,0.062
				c0.812,0.042,1.687,0.082,2.621,0.123c0.935,0.042,1.81,0.061,2.622,0.061c0.812,0,1.382,0,1.708,0
				c3.171,0,5.833-0.224,7.989-0.674c2.154-0.448,3.881-1.122,5.184-2.022c1.3-0.897,2.234-2.083,2.805-3.554
				c0.569-1.471,0.854-3.267,0.854-5.393V646.284z"/>
			<path class="st0" d="M870.729,707.868c-0.45,0.367-1.124,0.674-2.022,0.919c-1.308,0.41-3.596,0.858-6.862,1.348
				c-3.27,0.49-7.068,0.735-11.398,0.735c-4.657,0-9.172-0.654-13.542-1.96c-4.372-1.307-8.232-3.493-11.581-6.558
				c-3.352-3.063-6.048-7.087-8.089-12.071c-2.044-4.982-3.064-11.11-3.064-18.383v-15.442c0-7.271,1.021-13.398,3.064-18.384
				c2.041-4.982,4.737-8.986,8.089-12.01c3.349-3.021,7.209-5.188,11.581-6.496c4.37-1.306,8.885-1.96,13.542-1.96
				c4.33,0,8.129,0.247,11.398,0.74c3.267,0.494,5.555,0.946,6.862,1.356c0.898,0.249,1.572,0.536,2.022,0.865
				c0.448,0.329,0.674,0.946,0.674,1.85v11.969c0,1.641-0.777,2.461-2.328,2.461h-0.368c-2.37-0.163-5.128-0.368-8.272-0.613
				c-3.146-0.245-6.434-0.367-9.865-0.367c-2.126,0-4.105,0.306-5.944,0.917c-1.838,0.612-3.452,1.714-4.841,3.303
				c-1.39,1.59-2.472,3.71-3.248,6.359c-0.777,2.65-1.164,6.014-1.164,10.088v15.408c0,4.076,0.387,7.439,1.164,10.09
				c0.776,2.649,1.858,4.77,3.248,6.359c1.389,1.589,3.003,2.69,4.841,3.301c1.839,0.613,3.818,0.917,5.944,0.917
				c3.432,0,6.72-0.122,9.865-0.367c3.145-0.245,5.902-0.448,8.272-0.612h0.368c1.551,0,2.328,0.817,2.328,2.45v11.889
				C871.403,706.868,871.177,707.5,870.729,707.868z"/>
		</g>
	</g>
	<g>
		<g>
			<polygon class="st1" points="500,359.998 452.678,289.13 320.665,289.13 500,557.698 566.006,458.848 500,359.998 			"/>
		</g>
		<g>
			<g>
				<g>
					<polygon class="st0" points="679.335,289.13 547.322,289.13 508.668,347.018 574.674,445.868 					"/>
				</g>
			</g>
		</g>
	</g>
</g>
</svg>
